<svg xmlns="http://www.w3.org/2000/svg" xmlns:xlink="http://www.w3.org/1999/xlink" width="1650" zoomAndPan="magnify" viewBox="0 0 1237.5 352.49999" height="470" preserveAspectRatio="xMidYMid meet" version="1.0"><defs><g/><clipPath id="bd64f62841"><path d="M 0.625 51 L 1177 51 L 1177 300 L 0.625 300 Z M 0.625 51 " clip-rule="nonzero"/></clipPath><clipPath id="f1de0bcdd0"><path d="M 249 0.765625 L 979 0.765625 L 979 248 L 249 248 Z M 249 0.765625 " clip-rule="nonzero"/></clipPath><clipPath id="1ae738b8b6"><rect x="0" width="730" y="0" height="248"/></clipPath><clipPath id="73ba98ba2a"><path d="M 130 56 L 243 56 L 243 149 L 130 149 Z M 130 56 " clip-rule="nonzero"/></clipPath><clipPath id="3a41d0c895"><path d="M 148.394531 46.597656 L 252.105469 118.691406 L 224.601562 158.261719 L 120.886719 86.164062 Z M 148.394531 46.597656 " clip-rule="nonzero"/></clipPath><clipPath id="d1c480588b"><path d="M 168.179688 60.351562 L 232.246094 104.886719 C 237.496094 108.535156 241.078125 114.117188 242.210938 120.40625 C 243.339844 126.695312 241.925781 133.179688 238.277344 138.425781 C 234.632812 143.671875 229.046875 147.253906 222.757812 148.386719 C 216.46875 149.519531 209.988281 148.105469 204.742188 144.457031 L 140.671875 99.917969 C 135.425781 96.269531 131.839844 90.6875 130.710938 84.398438 C 129.578125 78.109375 130.992188 71.628906 134.640625 66.382812 C 138.289062 61.132812 143.871094 57.550781 150.160156 56.417969 C 156.449219 55.289062 162.929688 56.703125 168.179688 60.351562 Z M 168.179688 60.351562 " clip-rule="nonzero"/></clipPath><clipPath id="4a0b0a9572"><path d="M 0 0 L 113 0 L 113 93 L 0 93 Z M 0 0 " clip-rule="nonzero"/></clipPath><clipPath id="f81ae2b1d8"><path d="M 18.394531 -9.402344 L 122.105469 62.691406 L 94.601562 102.261719 L -9.113281 30.164062 Z M 18.394531 -9.402344 " clip-rule="nonzero"/></clipPath><clipPath id="7af009391a"><path d="M 38.179688 4.351562 L 102.246094 48.886719 C 107.496094 52.535156 111.078125 58.117188 112.210938 64.40625 C 113.339844 70.695312 111.925781 77.179688 108.277344 82.425781 C 104.632812 87.671875 99.046875 91.253906 92.757812 92.386719 C 86.46875 93.519531 79.988281 92.105469 74.742188 88.457031 L 10.671875 43.917969 C 5.425781 40.269531 1.839844 34.6875 0.710938 28.398438 C -0.421875 22.109375 0.992188 15.628906 4.640625 10.382812 C 8.289062 5.132812 13.871094 1.550781 20.160156 0.417969 C 26.449219 -0.710938 32.929688 0.703125 38.179688 4.351562 Z M 38.179688 4.351562 " clip-rule="nonzero"/></clipPath><clipPath id="8175a1ae95"><rect x="0" width="113" y="0" height="93"/></clipPath><clipPath id="0015aa0af2"><path d="M 130 56 L 243 56 L 243 149 L 130 149 Z M 130 56 " clip-rule="nonzero"/></clipPath><clipPath id="9e02f2f0c4"><path d="M 148.394531 46.597656 L 251.949219 118.582031 L 224.300781 158.355469 L 120.746094 86.367188 Z M 148.394531 46.597656 " clip-rule="nonzero"/></clipPath><clipPath id="00958abb41"><path d="M 148.402344 46.605469 L 252.167969 118.734375 L 224.425781 158.644531 L 120.660156 86.515625 Z M 148.402344 46.605469 " clip-rule="nonzero"/></clipPath><clipPath id="68a2ef611e"><path d="M 168.183594 60.355469 L 232.238281 104.882812 C 237.484375 108.527344 241.066406 114.109375 242.199219 120.398438 C 243.328125 126.6875 241.917969 133.167969 238.269531 138.414062 C 234.625 143.660156 229.042969 147.242188 222.753906 148.371094 C 216.464844 149.503906 209.984375 148.089844 204.738281 144.441406 L 140.683594 99.914062 C 135.4375 96.269531 131.855469 90.6875 130.726562 84.398438 C 129.59375 78.109375 131.007812 71.628906 134.652344 66.382812 C 138.300781 61.136719 143.882812 57.554688 150.171875 56.425781 C 156.457031 55.292969 162.9375 56.707031 168.183594 60.355469 Z M 168.183594 60.355469 " clip-rule="nonzero"/></clipPath><clipPath id="06e0bcba9f"><path d="M 13 36 L 106 36 L 106 149 L 13 149 Z M 13 36 " clip-rule="nonzero"/></clipPath><clipPath id="1c9148084f"><path d="M 3.789062 130.238281 L 75.886719 26.523438 L 115.457031 54.03125 L 43.359375 157.746094 Z M 3.789062 130.238281 " clip-rule="nonzero"/></clipPath><clipPath id="67b460f23f"><path d="M 17.542969 110.453125 L 62.082031 46.382812 C 65.730469 41.136719 71.3125 37.554688 77.601562 36.421875 C 83.890625 35.292969 90.371094 36.707031 95.617188 40.351562 C 100.867188 44 104.449219 49.582031 105.582031 55.871094 C 106.710938 62.164062 105.296875 68.644531 101.648438 73.890625 L 57.113281 137.960938 C 53.464844 143.207031 47.882812 146.789062 41.59375 147.921875 C 35.304688 149.054688 28.820312 147.640625 23.574219 143.992188 C 18.328125 140.34375 14.746094 134.761719 13.613281 128.472656 C 12.480469 122.183594 13.894531 115.703125 17.542969 110.453125 Z M 17.542969 110.453125 " clip-rule="nonzero"/></clipPath><clipPath id="59a2be8007"><path d="M 0 0 L 93 0 L 93 113 L 0 113 Z M 0 0 " clip-rule="nonzero"/></clipPath><clipPath id="04d85f1b21"><path d="M -9.210938 94.238281 L 62.886719 -9.476562 L 102.457031 18.03125 L 30.359375 121.746094 Z M -9.210938 94.238281 " clip-rule="nonzero"/></clipPath><clipPath id="a2fa005bbc"><path d="M 4.542969 74.453125 L 49.082031 10.382812 C 52.730469 5.136719 58.3125 1.554688 64.601562 0.421875 C 70.890625 -0.707031 77.371094 0.707031 82.617188 4.351562 C 87.867188 8 91.449219 13.582031 92.582031 19.871094 C 93.710938 26.164062 92.296875 32.644531 88.648438 37.890625 L 44.113281 101.960938 C 40.464844 107.207031 34.882812 110.789062 28.59375 111.921875 C 22.304688 113.054688 15.820312 111.640625 10.574219 107.992188 C 5.328125 104.34375 1.746094 98.761719 0.613281 92.472656 C -0.519531 86.183594 0.894531 79.703125 4.542969 74.453125 Z M 4.542969 74.453125 " clip-rule="nonzero"/></clipPath><clipPath id="8ee9288c5a"><rect x="0" width="93" y="0" height="113"/></clipPath><clipPath id="f2c71ce162"><path d="M 13 36 L 106 36 L 106 149 L 13 149 Z M 13 36 " clip-rule="nonzero"/></clipPath><clipPath id="6c88fd6c4f"><path d="M 3.789062 130.238281 L 75.777344 26.683594 L 115.546875 54.332031 L 43.5625 157.886719 Z M 3.789062 130.238281 " clip-rule="nonzero"/></clipPath><clipPath id="aa9a3b3ef0"><path d="M 3.796875 130.226562 L 75.929688 26.464844 L 115.839844 54.207031 L 43.707031 157.972656 Z M 3.796875 130.226562 " clip-rule="nonzero"/></clipPath><clipPath id="0cdb7f512e"><path d="M 17.546875 110.449219 L 62.074219 46.390625 C 65.722656 41.144531 71.304688 37.5625 77.59375 36.433594 C 83.878906 35.300781 90.359375 36.714844 95.605469 40.363281 C 100.851562 44.007812 104.433594 49.589844 105.566406 55.878906 C 106.695312 62.167969 105.28125 68.644531 101.636719 73.890625 L 57.109375 137.949219 C 53.460938 143.195312 47.878906 146.777344 41.59375 147.90625 C 35.304688 149.039062 28.824219 147.625 23.578125 143.976562 C 18.332031 140.332031 14.75 134.75 13.617188 128.460938 C 12.488281 122.171875 13.902344 115.695312 17.546875 110.449219 Z M 17.546875 110.449219 " clip-rule="nonzero"/></clipPath><clipPath id="d814c2e638"><path d="M 10 106 L 123 106 L 123 199 L 10 199 Z M 10 106 " clip-rule="nonzero"/></clipPath><clipPath id="4e83bdf146"><path d="M 28.128906 96.617188 L 131.84375 168.714844 L 104.335938 208.28125 L 0.625 136.1875 Z M 28.128906 96.617188 " clip-rule="nonzero"/></clipPath><clipPath id="1170c26001"><path d="M 47.914062 110.371094 L 111.984375 154.910156 C 117.230469 158.554688 120.8125 164.140625 121.945312 170.429688 C 123.078125 176.71875 121.664062 183.199219 118.015625 188.445312 C 114.367188 193.695312 108.785156 197.277344 102.496094 198.40625 C 96.207031 199.539062 89.726562 198.125 84.476562 194.476562 L 20.40625 149.941406 C 15.160156 146.292969 11.578125 140.710938 10.445312 134.421875 C 9.316406 128.132812 10.730469 121.648438 14.375 116.402344 C 18.023438 111.15625 23.605469 107.570312 29.894531 106.441406 C 36.1875 105.308594 42.667969 106.722656 47.914062 110.371094 Z M 47.914062 110.371094 " clip-rule="nonzero"/></clipPath><clipPath id="646f9d0a95"><path d="M 0 0 L 113 0 L 113 93 L 0 93 Z M 0 0 " clip-rule="nonzero"/></clipPath><clipPath id="0c60635407"><path d="M 18.128906 -9.382812 L 121.84375 62.714844 L 94.335938 102.28125 L -9.375 30.1875 Z M 18.128906 -9.382812 " clip-rule="nonzero"/></clipPath><clipPath id="7f61251487"><path d="M 37.914062 4.371094 L 101.984375 48.910156 C 107.230469 52.554688 110.8125 58.140625 111.945312 64.429688 C 113.078125 70.71875 111.664062 77.199219 108.015625 82.445312 C 104.367188 87.695312 98.785156 91.277344 92.496094 92.40625 C 86.207031 93.539062 79.726562 92.125 74.476562 88.476562 L 10.40625 43.941406 C 5.160156 40.292969 1.578125 34.710938 0.445312 28.421875 C -0.683594 22.132812 0.730469 15.648438 4.375 10.402344 C 8.023438 5.15625 13.605469 1.570312 19.894531 0.441406 C 26.1875 -0.691406 32.667969 0.722656 37.914062 4.371094 Z M 37.914062 4.371094 " clip-rule="nonzero"/></clipPath><clipPath id="0b10d38d2a"><rect x="0" width="113" y="0" height="93"/></clipPath><clipPath id="236dca15ff"><path d="M 10 106 L 123 106 L 123 199 L 10 199 Z M 10 106 " clip-rule="nonzero"/></clipPath><clipPath id="7a6c88a865"><path d="M 28.128906 96.617188 L 131.683594 168.605469 L 104.039062 208.375 L 0.484375 136.390625 Z M 28.128906 96.617188 " clip-rule="nonzero"/></clipPath><clipPath id="867f72b859"><path d="M 28.140625 96.625 L 131.90625 168.757812 L 104.164062 208.667969 L 0.398438 136.535156 Z M 28.140625 96.625 " clip-rule="nonzero"/></clipPath><clipPath id="5727abd72d"><path d="M 47.921875 110.375 L 111.976562 154.902344 C 117.222656 158.550781 120.804688 164.132812 121.933594 170.417969 C 123.066406 176.707031 121.652344 183.1875 118.007812 188.433594 C 114.359375 193.679688 108.777344 197.261719 102.488281 198.394531 C 96.203125 199.523438 89.722656 198.109375 84.476562 194.464844 L 20.421875 149.9375 C 15.175781 146.289062 11.59375 140.707031 10.460938 134.417969 C 9.332031 128.132812 10.742188 121.652344 14.390625 116.40625 C 18.039062 111.160156 23.617188 107.578125 29.90625 106.445312 C 36.195312 105.316406 42.675781 106.730469 47.921875 110.375 Z M 47.921875 110.375 " clip-rule="nonzero"/></clipPath><clipPath id="b82915fcf6"><path d="M 150 109 L 244 109 L 244 222 L 150 222 Z M 150 109 " clip-rule="nonzero"/></clipPath><clipPath id="40ab6180de"><path d="M 140.871094 203.222656 L 212.96875 99.507812 L 252.539062 127.015625 L 180.441406 230.730469 Z M 140.871094 203.222656 " clip-rule="nonzero"/></clipPath><clipPath id="aead11f57c"><path d="M 154.625 183.4375 L 199.164062 119.367188 C 202.8125 114.121094 208.394531 110.539062 214.683594 109.40625 C 220.972656 108.277344 227.453125 109.691406 232.699219 113.335938 C 237.949219 116.984375 241.53125 122.566406 242.664062 128.855469 C 243.792969 135.148438 242.378906 141.628906 238.730469 146.875 L 194.195312 210.945312 C 190.546875 216.191406 184.964844 219.773438 178.675781 220.90625 C 172.386719 222.039062 165.902344 220.625 160.65625 216.976562 C 155.410156 213.328125 151.828125 207.746094 150.695312 201.457031 C 149.5625 195.167969 150.976562 188.6875 154.625 183.4375 Z M 154.625 183.4375 " clip-rule="nonzero"/></clipPath><clipPath id="e771e0dc2e"><path d="M 0 0 L 93.882812 0 L 93.882812 113 L 0 113 Z M 0 0 " clip-rule="nonzero"/></clipPath><clipPath id="4c8191572b"><path d="M -9.128906 94.222656 L 62.96875 -9.492188 L 102.539062 18.015625 L 30.441406 121.730469 Z M -9.128906 94.222656 " clip-rule="nonzero"/></clipPath><clipPath id="ad80caceac"><path d="M 4.625 74.4375 L 49.164062 10.367188 C 52.8125 5.121094 58.394531 1.539062 64.683594 0.40625 C 70.972656 -0.722656 77.453125 0.691406 82.699219 4.335938 C 87.949219 7.984375 91.53125 13.566406 92.664062 19.855469 C 93.792969 26.148438 92.378906 32.628906 88.730469 37.875 L 44.195312 101.945312 C 40.546875 107.191406 34.964844 110.773438 28.675781 111.90625 C 22.386719 113.039062 15.902344 111.625 10.65625 107.976562 C 5.410156 104.328125 1.828125 98.746094 0.695312 92.457031 C -0.4375 86.167969 0.976562 79.6875 4.625 74.4375 Z M 4.625 74.4375 " clip-rule="nonzero"/></clipPath><clipPath id="64eb880a83"><rect x="0" width="94" y="0" height="113"/></clipPath><clipPath id="7ea6deca39"><path d="M 150 109 L 244 109 L 244 222 L 150 222 Z M 150 109 " clip-rule="nonzero"/></clipPath><clipPath id="b9ceb2def1"><path d="M 140.871094 203.222656 L 212.859375 99.667969 L 252.628906 127.3125 L 180.644531 230.871094 Z M 140.871094 203.222656 " clip-rule="nonzero"/></clipPath><clipPath id="f365641721"><path d="M 140.878906 203.210938 L 213.011719 99.449219 L 252.921875 127.191406 L 180.789062 230.953125 Z M 140.878906 203.210938 " clip-rule="nonzero"/></clipPath><clipPath id="e7c4cc7913"><path d="M 154.628906 183.433594 L 199.15625 119.375 C 202.804688 114.128906 208.386719 110.546875 214.675781 109.417969 C 220.960938 108.285156 227.441406 109.699219 232.6875 113.347656 C 237.933594 116.992188 241.515625 122.574219 242.648438 128.863281 C 243.777344 135.152344 242.363281 141.628906 238.71875 146.875 L 194.191406 210.933594 C 190.542969 216.179688 184.960938 219.761719 178.675781 220.890625 C 172.386719 222.023438 165.90625 220.609375 160.660156 216.960938 C 155.414062 213.316406 151.832031 207.734375 150.699219 201.445312 C 149.570312 195.15625 150.984375 188.679688 154.628906 183.433594 Z M 154.628906 183.433594 " clip-rule="nonzero"/></clipPath><clipPath id="256a62288b"><path d="M 990 35 L 1176.878906 35 L 1176.878906 149 L 990 149 Z M 990 35 " clip-rule="nonzero"/></clipPath><clipPath id="0e4faf2117"><rect x="0" width="187" y="0" height="114"/></clipPath><clipPath id="188d6b6049"><rect x="0" width="1177" y="0" height="249"/></clipPath></defs><g clip-path="url(#bd64f62841)"><g transform="matrix(1, 0, 0, 1, 0.000000000000000111, 51)"><g clip-path="url(#188d6b6049)"><g clip-path="url(#f1de0bcdd0)"><g transform="matrix(1, 0, 0, 1, 249, -0.000000000000014211)"><g clip-path="url(#1ae738b8b6)"><g fill="#ce654b" fill-opacity="1"><g transform="translate(0.995166, 192.889846)"><g><path d="M 12.65625 0 L 12.65625 -130.21875 L 91.0625 -130.21875 L 91.0625 -108.421875 L 34.453125 -108.421875 L 34.453125 -75.96875 L 80.21875 -75.96875 L 80.21875 -54.265625 L 34.453125 -54.265625 L 34.453125 0 Z M 12.65625 0 "/></g></g></g><g fill="#ce654b" fill-opacity="1"><g transform="translate(95.671268, 192.889846)"><g><path d="M 14.46875 0 L 14.46875 -130.21875 L 36.265625 -130.21875 L 36.265625 -20.4375 L 93.78125 -20.4375 L 93.78125 0 Z M 14.46875 0 "/></g></g></g><g fill="#ce654b" fill-opacity="1"><g transform="translate(192.155897, 192.889846)"><g><path d="M 3.625 0 L 44.671875 -130.21875 L 76.59375 -130.21875 L 117.65625 0 L 95.21875 0 L 57.96875 -116.828125 L 62.84375 -116.828125 L 26.046875 0 Z M 26.5 -28.21875 L 26.5 -48.5625 L 94.859375 -48.5625 L 94.859375 -28.21875 Z M 26.5 -28.21875 "/></g></g></g><g fill="#ce654b" fill-opacity="1"><g transform="translate(313.417273, 192.889846)"><g><path d="M 12.65625 0 L 12.65625 -130.21875 L 32.28125 -130.21875 L 77.3125 -37.984375 L 122.34375 -130.21875 L 141.96875 -130.21875 L 141.96875 0 L 121.625 0 L 121.625 -83.46875 L 81.65625 0 L 72.984375 0 L 33.09375 -83.46875 L 33.09375 0 Z M 12.65625 0 "/></g></g></g><g fill="#ce654b" fill-opacity="1"><g transform="translate(468.045886, 192.889846)"><g><path d="M 12.65625 0 L 12.65625 -130.21875 L 32.28125 -130.21875 L 77.3125 -37.984375 L 122.34375 -130.21875 L 141.96875 -130.21875 L 141.96875 0 L 121.625 0 L 121.625 -83.46875 L 81.65625 0 L 72.984375 0 L 33.09375 -83.46875 L 33.09375 0 Z M 12.65625 0 "/></g></g></g><g fill="#ce654b" fill-opacity="1"><g transform="translate(622.674474, 192.889846)"><g><path d="M 12.65625 0 L 12.65625 -130.21875 L 96.765625 -130.21875 L 96.765625 -109.78125 L 34.453125 -109.78125 L 34.453125 -77.671875 L 85.90625 -77.671875 L 85.90625 -57.234375 L 34.453125 -57.234375 L 34.453125 -20.4375 L 96.765625 -20.4375 L 96.765625 0 Z M 12.65625 0 "/></g></g></g></g></g></g><g clip-path="url(#73ba98ba2a)"><g clip-path="url(#3a41d0c895)"><g clip-path="url(#d1c480588b)"><g transform="matrix(1, 0, 0, 1, 130, 56)"><g clip-path="url(#8175a1ae95)"><g clip-path="url(#4a0b0a9572)"><g clip-path="url(#f81ae2b1d8)"><g clip-path="url(#7af009391a)"><path fill="#ce654b" d="M 18.394531 -9.402344 L 122.105469 62.691406 L 94.601562 102.261719 L -9.113281 30.164062 Z M 18.394531 -9.402344 " fill-opacity="1" fill-rule="nonzero"/></g></g></g></g></g></g></g></g><g clip-path="url(#0015aa0af2)"><g clip-path="url(#9e02f2f0c4)"><g clip-path="url(#00958abb41)"><g clip-path="url(#68a2ef611e)"><path stroke-linecap="butt" transform="matrix(0.750401, 0.521636, -0.521636, 0.750401, 148.393294, 46.596899)" fill="none" stroke-linejoin="miter" d="M 26.373907 0.00132981 L 111.734681 0.00148488 C 118.724332 -0.000540603 125.428969 2.777513 130.374658 7.720493 C 135.316837 12.665913 138.097307 19.369102 138.095823 26.361192 C 138.097849 33.350842 135.319795 40.055479 130.374375 44.997658 C 125.431395 49.943347 118.725767 52.720308 111.733677 52.718824 L 26.372902 52.718669 C 19.383252 52.720694 12.678615 49.94264 7.736436 44.997221 C 2.790747 40.054241 0.0137862 33.348612 0.0117607 26.358962 C 0.0132448 19.366872 2.791299 12.662234 7.736718 7.720055 C 12.676189 2.776806 19.381817 -0.00015433 26.373907 0.00132981 Z M 26.373907 0.00132981 " stroke="#ce654b" stroke-width="6.556003" stroke-opacity="1" stroke-miterlimit="4"/></g></g></g></g><g clip-path="url(#06e0bcba9f)"><g clip-path="url(#1c9148084f)"><g clip-path="url(#67b460f23f)"><g transform="matrix(1, 0, 0, 1, 13, 36)"><g clip-path="url(#8ee9288c5a)"><g clip-path="url(#59a2be8007)"><g clip-path="url(#04d85f1b21)"><g clip-path="url(#a2fa005bbc)"><path fill="#ce654b" d="M -9.210938 94.238281 L 62.886719 -9.476562 L 102.457031 18.03125 L 30.359375 121.746094 Z M -9.210938 94.238281 " fill-opacity="1" fill-rule="nonzero"/></g></g></g></g></g></g></g></g><g clip-path="url(#f2c71ce162)"><g clip-path="url(#6c88fd6c4f)"><g clip-path="url(#aa9a3b3ef0)"><g clip-path="url(#0cdb7f512e)"><path stroke-linecap="butt" transform="matrix(0.521636, -0.750401, 0.750401, 0.521636, 3.790526, 130.238735)" fill="none" stroke-linejoin="miter" d="M 26.371816 -0.000175881 L 111.7361 -0.0024605 C 118.72819 -0.00097636 125.432828 2.777077 130.375007 7.722497 C 135.318256 12.661968 138.095216 19.367596 138.093732 26.359686 C 138.095758 33.349336 135.317704 40.053974 130.374724 44.999662 C 125.429304 49.941842 118.727185 52.716362 111.737535 52.718388 L 26.373251 52.720673 C 19.381161 52.719188 12.676524 49.941135 7.736784 44.999225 C 2.791096 40.056245 0.014135 33.350616 0.0156191 26.358526 C 0.0135936 19.368876 2.791647 12.664238 7.734627 7.71855 C 12.680047 2.776371 19.382166 0.0018496 26.371816 -0.000175881 Z M 26.371816 -0.000175881 " stroke="#ce654b" stroke-width="6.556003" stroke-opacity="1" stroke-miterlimit="4"/></g></g></g></g><g clip-path="url(#d814c2e638)"><g clip-path="url(#4e83bdf146)"><g clip-path="url(#1170c26001)"><g transform="matrix(1, 0, 0, 1, 10, 106)"><g clip-path="url(#0b10d38d2a)"><g clip-path="url(#646f9d0a95)"><g clip-path="url(#0c60635407)"><g clip-path="url(#7f61251487)"><path fill="#ce654b" d="M 18.128906 -9.382812 L 121.84375 62.714844 L 94.335938 102.28125 L -9.375 30.1875 Z M 18.128906 -9.382812 " fill-opacity="1" fill-rule="nonzero"/></g></g></g></g></g></g></g></g><g clip-path="url(#236dca15ff)"><g clip-path="url(#7a6c88a865)"><g clip-path="url(#867f72b859)"><g clip-path="url(#5727abd72d)"><path stroke-linecap="butt" transform="matrix(0.750401, 0.521636, -0.521636, 0.750401, 28.12968, 96.618151)" fill="none" stroke-linejoin="miter" d="M 26.374535 -0.00139941 L 111.73531 -0.00124433 C 118.7274 0.000239804 125.432037 2.778294 130.371777 7.720204 C 135.317465 12.663184 138.094426 19.368812 138.096451 26.358462 C 138.094967 33.350552 135.316913 40.05519 130.373933 45.000879 C 125.432023 49.940618 118.726395 52.717579 111.736745 52.719604 L 26.37597 52.719449 C 19.38388 52.717965 12.679243 49.939911 7.733554 44.996931 C 2.793815 40.055021 0.0133446 33.351832 0.0148287 26.359742 C 0.0163129 19.367652 2.790857 12.665455 7.733837 7.719766 C 12.679257 2.777587 19.384885 0.000626077 26.374535 -0.00139941 Z M 26.374535 -0.00139941 " stroke="#ce654b" stroke-width="6.556003" stroke-opacity="1" stroke-miterlimit="4"/></g></g></g></g><g clip-path="url(#b82915fcf6)"><g clip-path="url(#40ab6180de)"><g clip-path="url(#aead11f57c)"><g transform="matrix(1, 0, 0, 1, 150, 109)"><g clip-path="url(#64eb880a83)"><g clip-path="url(#e771e0dc2e)"><g clip-path="url(#4c8191572b)"><g clip-path="url(#ad80caceac)"><path fill="#ce654b" d="M -9.128906 94.222656 L 62.96875 -9.492188 L 102.539062 18.015625 L 30.441406 121.730469 Z M -9.128906 94.222656 " fill-opacity="1" fill-rule="nonzero"/></g></g></g></g></g></g></g></g><g clip-path="url(#7ea6deca39)"><g clip-path="url(#b9ceb2def1)"><g clip-path="url(#f365641721)"><g clip-path="url(#e7c4cc7913)"><path stroke-linecap="butt" transform="matrix(0.521636, -0.750401, 0.750401, 0.521636, 140.87241, 203.223015)" fill="none" stroke-linejoin="miter" d="M 26.371824 0.0000157055 L 111.736107 -0.00226891 C 118.728198 -0.000784774 125.432835 2.777269 130.372574 7.719179 C 135.318263 12.662159 138.095224 19.367787 138.09374 26.359878 C 138.095765 33.349528 135.317711 40.054165 130.374731 44.999854 C 125.429312 49.942033 118.727193 52.716554 111.737542 52.71858 L 26.373259 52.720864 C 19.381168 52.71938 12.676531 49.941326 7.736792 44.999416 C 2.791103 40.056436 0.0141423 33.350808 0.0156265 26.358718 C 0.013601 19.369067 2.791655 12.66443 7.734635 7.718741 C 12.680054 2.776562 19.382173 0.00204119 26.371824 0.0000157055 Z M 26.371824 0.0000157055 " stroke="#ce654b" stroke-width="6.556003" stroke-opacity="1" stroke-miterlimit="4"/></g></g></g></g><g clip-path="url(#256a62288b)"><g transform="matrix(1, 0, 0, 1, 990, 35)"><g clip-path="url(#0e4faf2117)"><g fill="#ce654b" fill-opacity="1"><g transform="translate(1.021902, 88.139049)"><g><path d="M 27.421875 1.25 C 23.035156 1.25 19.359375 0.207031 16.390625 -1.875 C 13.421875 -3.957031 11.1875 -6.789062 9.6875 -10.375 C 8.195312 -13.96875 7.453125 -18 7.453125 -22.46875 C 7.453125 -26.988281 8.195312 -31.035156 9.6875 -34.609375 C 11.1875 -38.191406 13.382812 -41.015625 16.28125 -43.078125 C 19.1875 -45.148438 22.773438 -46.1875 27.046875 -46.1875 C 31.285156 -46.1875 34.96875 -45.148438 38.09375 -43.078125 C 41.21875 -41.015625 43.640625 -38.203125 45.359375 -34.640625 C 47.078125 -31.078125 47.9375 -27.019531 47.9375 -22.46875 C 47.9375 -17.976562 47.085938 -13.941406 45.390625 -10.359375 C 43.703125 -6.785156 41.316406 -3.957031 38.234375 -1.875 C 35.160156 0.207031 31.554688 1.25 27.421875 1.25 Z M 5.734375 0 L 5.734375 -59.921875 L 15.859375 -59.921875 L 15.859375 -31.546875 L 14.609375 -31.546875 L 14.609375 0 Z M 25.875 -7.734375 C 28.488281 -7.734375 30.640625 -8.382812 32.328125 -9.6875 C 34.023438 -11 35.28125 -12.769531 36.09375 -15 C 36.914062 -17.226562 37.328125 -19.71875 37.328125 -22.46875 C 37.328125 -25.1875 36.910156 -27.660156 36.078125 -29.890625 C 35.242188 -32.128906 33.953125 -33.90625 32.203125 -35.21875 C 30.453125 -36.539062 28.234375 -37.203125 25.546875 -37.203125 C 22.992188 -37.203125 20.910156 -36.582031 19.296875 -35.34375 C 17.691406 -34.113281 16.507812 -32.394531 15.75 -30.1875 C 14.988281 -27.976562 14.609375 -25.40625 14.609375 -22.46875 C 14.609375 -19.550781 14.988281 -16.984375 15.75 -14.765625 C 16.507812 -12.546875 17.710938 -10.816406 19.359375 -9.578125 C 21.015625 -8.347656 23.1875 -7.734375 25.875 -7.734375 Z M 25.875 -7.734375 "/></g></g></g><g fill="#ce654b" fill-opacity="1"><g transform="translate(52.281663, 88.139049)"><g><path d="M 26.25 1.25 C 21.707031 1.25 17.710938 0.261719 14.265625 -1.703125 C 10.828125 -3.671875 8.144531 -6.398438 6.21875 -9.890625 C 4.289062 -13.390625 3.328125 -17.414062 3.328125 -21.96875 C 3.328125 -26.875 4.269531 -31.132812 6.15625 -34.75 C 8.039062 -38.375 10.660156 -41.1875 14.015625 -43.1875 C 17.378906 -45.1875 21.265625 -46.1875 25.671875 -46.1875 C 30.328125 -46.1875 34.285156 -45.097656 37.546875 -42.921875 C 40.804688 -40.742188 43.226562 -37.671875 44.8125 -33.703125 C 46.394531 -29.734375 46.992188 -25.0625 46.609375 -19.6875 L 36.65625 -19.6875 L 36.65625 -23.34375 C 36.625 -28.226562 35.765625 -31.789062 34.078125 -34.03125 C 32.390625 -36.28125 29.726562 -37.40625 26.09375 -37.40625 C 21.988281 -37.40625 18.9375 -36.132812 16.9375 -33.59375 C 14.9375 -31.0625 13.9375 -27.351562 13.9375 -22.46875 C 13.9375 -17.914062 14.9375 -14.390625 16.9375 -11.890625 C 18.9375 -9.398438 21.847656 -8.15625 25.671875 -8.15625 C 28.140625 -8.15625 30.269531 -8.703125 32.0625 -9.796875 C 33.851562 -10.890625 35.234375 -12.476562 36.203125 -14.5625 L 46.109375 -11.5625 C 44.378906 -7.519531 41.71875 -4.375 38.125 -2.125 C 34.539062 0.121094 30.582031 1.25 26.25 1.25 Z M 10.78125 -19.6875 L 10.78125 -27.25 L 41.6875 -27.25 L 41.6875 -19.6875 Z M 10.78125 -19.6875 "/></g></g></g><g fill="#ce654b" fill-opacity="1"><g transform="translate(102.376432, 88.139049)"><g><path d="M 32.15625 0 C 29.195312 0.550781 26.296875 0.789062 23.453125 0.71875 C 20.609375 0.65625 18.0625 0.132812 15.8125 -0.84375 C 13.5625 -1.832031 11.851562 -3.394531 10.6875 -5.53125 C 9.664062 -7.476562 9.125 -9.460938 9.0625 -11.484375 C 9.007812 -13.503906 8.984375 -15.789062 8.984375 -18.34375 L 8.984375 -57.421875 L 18.96875 -57.421875 L 18.96875 -18.9375 C 18.96875 -17.132812 18.988281 -15.550781 19.03125 -14.1875 C 19.070312 -12.832031 19.359375 -11.722656 19.890625 -10.859375 C 20.890625 -9.191406 22.484375 -8.257812 24.671875 -8.0625 C 26.867188 -7.875 29.363281 -7.988281 32.15625 -8.40625 Z M 0.828125 -37.078125 L 0.828125 -44.9375 L 32.15625 -44.9375 L 32.15625 -37.078125 Z M 0.828125 -37.078125 "/></g></g></g><g fill="#ce654b" fill-opacity="1"><g transform="translate(138.408051, 88.139049)"><g><path d="M 18.390625 1.25 C 15.140625 1.25 12.390625 0.632812 10.140625 -0.59375 C 7.898438 -1.832031 6.203125 -3.476562 5.046875 -5.53125 C 3.898438 -7.582031 3.328125 -9.84375 3.328125 -12.3125 C 3.328125 -14.476562 3.6875 -16.425781 4.40625 -18.15625 C 5.132812 -19.894531 6.242188 -21.394531 7.734375 -22.65625 C 9.234375 -23.914062 11.175781 -24.945312 13.5625 -25.75 C 15.363281 -26.332031 17.476562 -26.859375 19.90625 -27.328125 C 22.332031 -27.804688 24.96875 -28.242188 27.8125 -28.640625 C 30.65625 -29.046875 33.628906 -29.484375 36.734375 -29.953125 L 33.15625 -27.921875 C 33.1875 -31.023438 32.492188 -33.3125 31.078125 -34.78125 C 29.660156 -36.25 27.273438 -36.984375 23.921875 -36.984375 C 21.898438 -36.984375 19.945312 -36.507812 18.0625 -35.5625 C 16.175781 -34.625 14.859375 -33.003906 14.109375 -30.703125 L 4.953125 -33.578125 C 6.054688 -37.378906 8.171875 -40.429688 11.296875 -42.734375 C 14.421875 -45.035156 18.628906 -46.1875 23.921875 -46.1875 C 27.921875 -46.1875 31.4375 -45.535156 34.46875 -44.234375 C 37.507812 -42.929688 39.765625 -40.796875 41.234375 -37.828125 C 42.035156 -36.242188 42.519531 -34.625 42.6875 -32.96875 C 42.851562 -31.320312 42.9375 -29.53125 42.9375 -27.59375 L 42.9375 0 L 34.15625 0 L 34.15625 -9.734375 L 35.625 -8.15625 C 33.59375 -4.90625 31.222656 -2.523438 28.515625 -1.015625 C 25.816406 0.492188 22.441406 1.25 18.390625 1.25 Z M 20.390625 -6.734375 C 22.660156 -6.734375 24.597656 -7.132812 26.203125 -7.9375 C 27.816406 -8.75 29.101562 -9.738281 30.0625 -10.90625 C 31.019531 -12.070312 31.664062 -13.164062 32 -14.1875 C 32.519531 -15.46875 32.816406 -16.929688 32.890625 -18.578125 C 32.960938 -20.222656 33 -21.5625 33 -22.59375 L 36.078125 -21.671875 C 33.054688 -21.203125 30.460938 -20.785156 28.296875 -20.421875 C 26.128906 -20.066406 24.269531 -19.726562 22.71875 -19.40625 C 21.164062 -19.09375 19.789062 -18.738281 18.59375 -18.34375 C 17.4375 -17.925781 16.453125 -17.441406 15.640625 -16.890625 C 14.835938 -16.335938 14.222656 -15.695312 13.796875 -14.96875 C 13.367188 -14.25 13.15625 -13.40625 13.15625 -12.4375 C 13.15625 -11.332031 13.429688 -10.351562 13.984375 -9.5 C 14.535156 -8.65625 15.34375 -7.984375 16.40625 -7.484375 C 17.476562 -6.984375 18.804688 -6.734375 20.390625 -6.734375 Z M 20.390625 -6.734375 "/></g></g></g></g></g></g></g></g></g></svg>